<?xml version="1.0" standalone="no"?>
<!DOCTYPE svg PUBLIC "-//W3C//DTD SVG 20010904//EN"
 "http://www.w3.org/TR/2001/REC-SVG-20010904/DTD/svg10.dtd">
<svg version="1.0" xmlns="http://www.w3.org/2000/svg"
 width="4000.000000pt" height="2250.000000pt" viewBox="0 0 4000.000000 2250.000000"
 preserveAspectRatio="xMidYMid meet">

<g transform="translate(0.000000,2250.000000) scale(0.100000,-0.100000)"
fill="#000000" stroke="none">
<path d="M6390 15413 c-153 -18 -371 -83 -514 -155 -749 -376 -1259 -1344
-1391 -2643 -88 -867 -5 -1789 223 -2481 59 -176 105 -291 191 -469 212 -437
481 -764 806 -978 269 -177 534 -257 851 -258 398 -1 713 126 1003 406 263
255 467 604 610 1048 51 156 114 409 109 439 -3 19 -17 25 -93 44 -49 13 -90
22 -91 21 0 -1 -11 -56 -24 -122 -90 -470 -294 -892 -560 -1154 -319 -316
-793 -433 -1181 -291 -493 180 -868 742 -1058 1585 -61 270 -107 602 -133 960
-15 218 -15 909 0 1130 58 811 191 1400 422 1870 183 373 391 608 645 730 144
68 197 80 365 79 172 -1 253 -19 398 -89 134 -65 232 -135 353 -255 235 -234
426 -548 599 -985 51 -128 139 -395 160 -483 7 -32 17 -52 24 -49 6 2 46 13
90 23 43 10 80 24 83 31 5 13 -332 1953 -345 1986 -6 15 -36 -1 -216 -113
-116 -72 -218 -136 -227 -141 -14 -7 -33 3 -89 44 -190 143 -422 237 -662 267
-79 10 -274 11 -348 3z"/>
<path d="M11532 15409 c-861 -116 -1529 -936 -1782 -2189 -94 -463 -115 -701
-115 -1295 0 -493 7 -612 56 -965 207 -1484 952 -2462 1929 -2529 289 -20 560
33 810 159 311 157 554 382 780 726 328 498 525 1138 607 1969 25 260 25 1024
0 1275 -70 689 -200 1192 -427 1655 -318 648 -785 1056 -1347 1175 -115 25
-394 35 -511 19z m428 -258 c568 -162 976 -887 1134 -2017 53 -378 76 -744 76
-1214 0 -1223 -193 -2139 -572 -2717 -94 -143 -287 -336 -405 -407 -289 -171
-627 -171 -916 0 -116 69 -310 263 -403 404 -322 485 -509 1216 -564 2200 -13
238 -13 800 0 1045 68 1253 367 2135 858 2526 122 98 251 160 398 193 97 22
293 15 394 -13z"/>
<path d="M27326 12413 c-396 -1627 -732 -3003 -748 -3058 -37 -124 -101 -261
-161 -342 -111 -149 -280 -232 -510 -249 l-87 -7 0 -93 0 -94 790 0 790 0 0
93 0 94 -117 6 c-182 10 -287 43 -366 116 -67 62 -90 123 -95 253 -6 150 6
211 184 951 85 353 159 663 165 690 l11 47 786 0 787 0 179 -728 c230 -931
220 -884 220 -1022 1 -100 -2 -120 -21 -157 -55 -103 -186 -152 -410 -153
l-73 0 0 -95 0 -95 885 0 885 0 0 95 0 95 -49 0 c-124 0 -296 38 -371 82 -54
32 -128 107 -165 168 -45 75 -86 181 -129 335 -19 72 -353 1437 -741 3035
-388 1598 -711 2924 -717 2948 l-10 42 -97 0 -97 0 -718 -2957z m1008 142
c196 -808 356 -1476 356 -1482 0 -10 -152 -13 -726 -13 -577 0 -725 3 -721 13
2 6 166 677 363 1489 197 813 361 1474 365 1470 3 -4 167 -668 363 -1477z"/>
<path d="M15090 15187 l0 -94 68 -6 c37 -4 90 -7 117 -7 79 -1 198 -26 264
-55 109 -49 171 -139 204 -295 9 -41 12 -745 12 -2815 0 -2582 -1 -2764 -17
-2827 -60 -232 -183 -310 -510 -325 l-138 -6 0 -94 0 -93 960 0 960 0 0 93 0
94 -137 6 c-221 11 -323 40 -407 117 -48 45 -86 113 -105 194 -26 105 -30 346
-31 1549 l0 1247 213 0 c116 0 306 5 422 10 115 5 211 7 213 5 2 -2 308 -748
681 -1657 l676 -1653 528 -3 527 -2 0 95 0 95 -62 0 c-285 2 -461 127 -617
438 -36 71 -1135 2727 -1148 2774 -4 13 10 21 69 38 232 66 500 184 673 297
376 246 604 583 682 1008 24 127 23 445 -1 574 -55 300 -179 536 -390 746
-352 350 -851 545 -1606 626 -68 8 -455 13 -1102 16 l-998 5 0 -95z m2020
-168 c447 -48 825 -206 1062 -443 185 -185 290 -396 345 -689 24 -131 23 -445
-1 -582 -53 -293 -167 -520 -360 -711 -351 -348 -850 -495 -1636 -482 l-185 3
0 1255 c0 1334 0 1331 48 1459 39 108 136 180 265 201 65 10 321 4 462 -11z"/>
<path d="M20697 15273 c-4 -3 -7 -46 -7 -94 l0 -87 108 -6 c288 -17 404 -58
479 -170 51 -74 72 -160 84 -330 6 -99 9 -1055 7 -2781 -4 -2489 -5 -2634 -22
-2705 -25 -104 -59 -171 -112 -220 -84 -77 -186 -106 -406 -117 l-138 -6 0
-94 0 -94 988 4 c950 3 992 4 1117 24 516 85 937 274 1300 585 713 611 1079
1608 1052 2863 -6 289 -22 470 -62 710 -174 1044 -679 1817 -1455 2224 -321
168 -662 262 -1060 291 -149 11 -1863 14 -1873 3z m1838 -243 c312 -30 594
-129 846 -299 715 -480 1099 -1462 1099 -2811 0 -1340 -383 -2327 -1089 -2801
-299 -201 -644 -308 -998 -309 -226 0 -334 52 -397 190 -53 118 -51 -12 -51
2935 l0 2740 22 84 c47 174 119 242 291 271 69 11 153 11 277 0z"/>
<path d="M31480 15185 c0 -92 1 -95 23 -95 88 -1 287 -22 338 -35 169 -44 249
-133 287 -318 16 -76 17 -295 17 -2812 0 -2190 -3 -2744 -13 -2798 -20 -107
-50 -176 -100 -229 -82 -88 -192 -124 -419 -135 l-133 -6 0 -94 0 -93 1882 2
1882 3 173 745 c95 410 174 754 175 764 3 17 -10 23 -91 43 -51 13 -94 23 -96
21 -1 -2 -23 -66 -49 -143 -56 -166 -172 -410 -252 -532 -229 -352 -508 -547
-904 -635 -102 -22 -119 -23 -600 -23 -481 0 -497 1 -574 23 -194 54 -270 152
-296 377 -14 126 -14 5296 0 5434 19 186 64 281 164 348 79 54 176 75 399 89
l97 6 0 94 0 94 -955 0 -955 0 0 -95z"/>
<path d="M12605 6959 c-77 -18 -140 -83 -168 -174 -20 -66 -14 -247 12 -350
94 -373 323 -733 567 -894 95 -62 182 -91 273 -91 153 1 222 85 220 269 -2
118 -9 145 -37 149 -19 3 -23 0 -19 -15 15 -49 18 -135 7 -187 -29 -142 -156
-185 -315 -107 -136 67 -296 264 -409 502 -190 402 -239 727 -125 824 48 40
125 36 219 -12 85 -42 220 -169 310 -291 47 -64 78 -86 82 -59 1 5 -54 105
-122 222 l-123 213 -37 -29 -36 -30 -55 26 c-55 25 -142 46 -183 44 -11 -1
-39 -5 -61 -10z"/>
<path d="M15155 6961 c-133 -34 -191 -134 -188 -326 4 -328 229 -788 501
-1027 201 -176 449 -213 539 -79 33 49 43 95 42 196 -1 113 -8 139 -38 143
-20 3 -23 0 -17 -15 14 -35 18 -158 7 -200 -23 -84 -88 -133 -175 -133 -192 0
-421 243 -583 618 -143 330 -187 578 -125 699 82 158 323 56 545 -232 63 -82
94 -107 98 -80 3 14 -234 424 -245 425 -4 0 -22 -11 -38 -26 -17 -14 -36 -23
-42 -20 -122 55 -217 74 -281 57z"/>
<path d="M30080 6960 c-127 -22 -245 -95 -309 -191 -50 -75 -71 -142 -71 -230
0 -115 34 -184 183 -378 111 -144 144 -233 127 -352 -26 -183 -166 -309 -342
-309 -176 1 -265 142 -229 363 7 44 7 47 -15 47 -24 0 -20 9 -127 -282 -30
-82 -52 -148 -48 -148 3 1 35 18 70 40 l65 39 35 -31 c61 -54 115 -72 228 -76
123 -5 206 16 299 76 143 93 226 287 195 458 -16 86 -58 162 -170 311 -120
160 -145 217 -139 318 3 42 14 91 28 123 28 65 102 134 167 156 65 22 167 20
220 -4 84 -38 133 -166 119 -311 -7 -69 -1 -83 29 -61 11 7 109 422 101 429
-2 2 -28 -8 -56 -22 l-53 -27 -51 26 c-86 43 -157 53 -256 36z"/>
<path d="M9629 6918 c7 -19 18 -24 58 -28 54 -6 94 -27 118 -64 8 -13 105
-246 215 -519 109 -273 216 -529 237 -569 98 -188 256 -288 451 -288 160 1
242 72 242 209 0 70 -23 134 -234 656 -199 491 -210 527 -164 559 12 9 35 16
51 16 24 0 28 4 25 23 -3 22 -5 22 -185 25 -143 2 -183 0 -183 -10 0 -25 15
-35 57 -41 55 -7 103 -37 136 -84 36 -53 426 -1022 439 -1092 10 -50 8 -62
-10 -104 -18 -40 -29 -51 -68 -69 -65 -28 -161 -22 -241 17 -68 34 -157 120
-194 190 -40 74 -430 1043 -436 1083 -7 43 14 62 69 62 38 0 43 5 32 34 -5 14
-34 16 -215 16 l-208 0 8 -22z"/>
<path d="M10930 6934 c0 -3 5 -14 10 -25 8 -14 21 -19 51 -19 49 0 91 -21 117
-57 20 -29 494 -1195 506 -1245 9 -39 -22 -68 -73 -68 -34 0 -38 -3 -34 -20 5
-19 14 -20 215 -20 188 0 209 2 204 16 -3 9 -6 18 -6 20 0 2 -17 4 -37 4 -50
0 -103 27 -129 67 -17 26 -245 576 -248 600 0 4 62 11 139 14 181 7 257 30
326 99 54 54 65 88 56 180 -13 142 -127 286 -289 364 -108 52 -187 73 -324 86
-106 10 -484 14 -484 4z m584 -74 c102 -26 168 -63 237 -130 90 -89 148 -226
134 -318 -5 -37 -16 -55 -49 -88 -56 -54 -129 -74 -262 -74 l-99 0 -113 283
c-62 155 -113 291 -112 303 0 11 5 25 12 32 19 19 164 15 252 -8z"/>
<path d="M13410 6934 c0 -23 24 -44 52 -44 76 0 99 -25 464 -511 l345 -460 65
-159 c35 -87 64 -173 64 -190 0 -35 -26 -50 -87 -50 -28 0 -34 -3 -29 -16 3
-9 6 -18 6 -20 0 -2 99 -4 221 -4 198 0 220 2 215 16 -3 9 -6 18 -6 20 0 2
-18 4 -40 4 -50 0 -98 19 -127 51 -12 14 -61 118 -107 233 l-85 208 -22 361
c-24 417 -23 472 10 498 13 11 36 19 52 19 32 0 34 3 19 31 -10 18 -23 19
-165 19 -85 0 -155 -4 -155 -8 0 -21 29 -40 68 -45 94 -12 98 -24 122 -453 12
-196 19 -358 17 -360 -6 -6 -562 743 -572 770 -11 32 4 46 48 46 28 0 32 6 21
34 -5 14 -32 16 -200 16 -107 0 -194 -3 -194 -6z"/>
<path d="M15979 6918 c7 -18 18 -24 57 -28 59 -7 86 -21 112 -57 27 -39 512
-1236 512 -1264 0 -24 -42 -49 -80 -49 -38 0 -40 -2 -30 -20 10 -20 21 -20
421 -20 l409 0 -5 23 c-3 12 -16 85 -29 161 -23 129 -34 156 -61 156 -6 0 -10
-33 -11 -78 0 -63 -5 -87 -25 -122 -39 -71 -73 -84 -218 -89 -140 -4 -184 5
-224 47 -18 19 -102 213 -268 622 -132 326 -243 609 -246 628 -7 43 14 62 69
62 38 0 43 5 32 34 -5 14 -34 16 -215 16 l-208 0 8 -22z"/>
<path d="M17210 6934 c0 -3 5 -14 10 -25 8 -14 21 -19 53 -19 47 0 98 -26 121
-62 17 -26 491 -1199 501 -1240 10 -38 -23 -68 -74 -68 -34 0 -38 -3 -34 -20
5 -20 14 -20 424 -20 l419 0 -5 23 c-3 12 -16 85 -29 161 -23 129 -34 156 -61
156 -6 0 -10 -33 -11 -78 0 -63 -5 -87 -25 -122 -39 -72 -72 -84 -227 -89
-157 -4 -209 10 -241 62 -24 40 -241 575 -241 595 0 13 15 14 98 9 54 -3 111
-11 127 -17 38 -14 100 -74 116 -111 8 -20 19 -29 34 -29 22 0 20 8 -49 178
-62 151 -76 177 -96 180 -19 3 -22 0 -16 -15 19 -49 18 -70 -7 -99 -25 -29
-26 -29 -133 -29 l-108 0 -98 240 c-54 132 -105 264 -115 294 l-17 53 23 19
c20 16 40 19 130 19 119 0 183 -14 272 -61 58 -31 151 -114 211 -188 27 -33
39 -42 51 -35 13 8 -1 36 -90 177 l-107 167 -403 0 c-222 0 -403 -3 -403 -6z"/>
<path d="M18489 6918 c7 -19 18 -24 58 -28 53 -6 94 -27 118 -63 19 -29 484
-1179 498 -1231 9 -35 8 -41 -12 -58 -14 -10 -39 -18 -62 -18 -37 0 -39 -1
-29 -21 11 -20 18 -20 253 -17 237 3 243 4 297 29 31 14 72 41 93 58 255 224
-6 947 -443 1230 -174 113 -295 141 -602 141 l-177 0 8 -22z m512 -61 c100
-34 175 -84 275 -182 140 -139 251 -321 328 -544 70 -200 82 -354 37 -456 -40
-89 -102 -133 -201 -142 -68 -6 -109 11 -138 59 -24 41 -491 1190 -499 1229
-3 17 0 35 7 44 19 22 113 19 191 -8z"/>
<path d="M23586 6924 c-11 -29 -6 -34 32 -34 26 0 45 -7 57 -20 16 -18 17 -25
6 -61 -23 -75 -484 -1204 -503 -1232 -25 -36 -51 -48 -112 -56 -38 -4 -52 -11
-54 -24 -3 -16 10 -17 205 -15 189 3 208 5 211 21 3 13 -4 17 -30 17 -42 0
-78 24 -78 53 0 23 225 592 244 616 8 11 32 12 110 8 122 -7 151 -23 151 -83
0 -22 -4 -49 -9 -62 -7 -21 -5 -23 14 -20 21 3 51 65 153 326 l17 42 -25 0
c-14 0 -25 -5 -25 -12 0 -28 -55 -89 -103 -113 -45 -22 -64 -25 -154 -25 -57
0 -103 2 -103 5 0 13 215 535 233 564 30 50 68 61 211 61 135 0 166 -7 209
-48 44 -42 59 -78 64 -162 5 -70 8 -77 24 -73 22 6 21 4 49 168 11 66 23 132
26 148 l6 27 -410 0 c-365 0 -411 -2 -416 -16z"/>
<path d="M24790 6921 c-5 -11 -10 -22 -10 -25 0 -3 44 -6 98 -6 117 0 148 -14
138 -62 -6 -32 -465 -1168 -497 -1230 -30 -58 -79 -78 -200 -78 -94 0 -109 -5
-109 -36 0 -2 150 -4 334 -4 325 0 334 1 339 20 5 19 0 20 -86 20 -115 0 -142
12 -141 61 1 37 471 1207 502 1249 33 46 78 60 184 60 86 0 99 2 108 19 5 11
10 22 10 25 0 3 -148 6 -330 6 -315 0 -330 -1 -340 -19z"/>
<path d="M25827 6925 c-12 -29 -8 -35 26 -35 50 0 80 -26 73 -62 -10 -48 -476
-1200 -503 -1241 -27 -43 -74 -67 -127 -67 -25 0 -38 -6 -46 -21 l-11 -20 303
3 c340 5 361 8 508 80 102 50 202 144 243 228 52 107 59 247 17 329 -26 52
-94 109 -150 125 -27 8 -39 16 -30 19 8 3 44 15 80 26 203 65 354 227 367 394
10 117 -43 188 -169 229 -55 18 -97 21 -319 26 -234 4 -257 3 -262 -13z m486
-56 c46 -12 100 -58 117 -99 19 -46 8 -145 -24 -217 -52 -114 -189 -221 -333
-258 -49 -13 -233 -22 -233 -11 0 1 49 124 110 272 132 324 132 324 248 324
42 0 94 -5 115 -11z m-248 -663 c50 -22 82 -51 107 -100 17 -34 20 -53 16
-135 -6 -116 -32 -190 -92 -264 -93 -114 -207 -166 -382 -174 -134 -6 -159 2
-151 52 4 26 237 610 254 639 9 15 204 1 248 -18z"/>
<path d="M27136 6924 c-11 -29 -6 -34 33 -34 51 0 75 -23 68 -64 -6 -35 -468
-1184 -495 -1229 -26 -45 -64 -69 -118 -75 -45 -4 -63 -15 -64 -34 0 -5 190
-8 423 -8 l423 0 102 161 c56 88 100 165 97 170 -12 18 -30 8 -60 -32 -58 -79
-165 -170 -244 -208 -75 -35 -78 -36 -221 -39 -87 -2 -156 0 -172 7 -47 18
-37 59 90 371 l117 285 95 0 c104 0 140 -7 164 -31 18 -18 21 -70 6 -109 -9
-24 -8 -26 12 -23 19 3 34 30 95 178 39 96 72 178 72 183 1 4 -8 7 -19 7 -13
0 -27 -14 -40 -39 -22 -44 -68 -83 -119 -100 -49 -16 -245 -15 -238 2 227 561
222 550 262 587 25 24 33 25 167 28 113 3 150 0 185 -13 74 -29 113 -101 113
-211 0 -35 4 -64 8 -64 29 0 41 34 66 180 14 85 26 158 26 163 0 4 -186 7
-414 7 -368 0 -415 -2 -420 -16z"/>
<path d="M28461 6922 c-16 -30 -15 -32 25 -32 52 0 74 -15 74 -51 0 -41 -483
-1235 -512 -1267 -29 -31 -78 -52 -122 -52 -29 0 -46 -13 -46 -36 0 -2 94 -4
209 -4 200 0 209 1 214 20 4 17 0 20 -23 20 -55 0 -80 16 -80 53 0 19 50 157
118 328 l119 294 96 3 97 3 0 -361 0 -360 119 0 c99 0 120 3 125 16 9 24 9 24
-28 24 -22 0 -45 9 -63 24 l-28 24 -5 326 -5 326 70 21 c173 52 316 163 383
297 33 68 37 84 37 152 0 66 -4 82 -26 116 -15 23 -47 51 -76 66 -91 50 -148
59 -414 65 -242 6 -247 5 -258 -15z m535 -78 c49 -24 63 -37 83 -78 22 -44 23
-53 13 -107 -45 -244 -264 -408 -544 -409 l-87 0 114 283 c97 240 120 287 151
316 l36 33 88 -4 c71 -3 98 -9 146 -34z"/>
<path d="M21690 6417 c0 -2 27 -39 59 -83 l60 -79 -430 -3 -429 -2 0 -25 0
-25 430 0 c237 0 430 -3 430 -6 0 -3 -27 -41 -60 -84 -63 -83 -67 -90 -49 -90
13 0 248 192 246 201 -4 13 -232 199 -244 199 -7 0 -13 -1 -13 -3z"/>
</g>
</svg>
