<?xml version="1.0" standalone="no"?>
<!DOCTYPE svg PUBLIC "-//W3C//DTD SVG 20010904//EN"
 "http://www.w3.org/TR/2001/REC-SVG-20010904/DTD/svg10.dtd">
<svg version="1.0" xmlns="http://www.w3.org/2000/svg"
 width="337.000000pt" height="149.000000pt" viewBox="0 0 337.000000 149.000000"
 preserveAspectRatio="xMidYMid meet">

<g transform="translate(0.000000,149.000000) scale(0.100000,-0.100000)"
fill="#000000" stroke="none">
<path d="M1 1053 c0 -250 4 -429 9 -417 27 67 176 138 276 132 58 -4 61 -18 8
-36 -86 -30 -116 -47 -149 -84 -83 -91 -18 -209 131 -241 157 -33 283 66 272
212 -6 79 -36 133 -150 263 -54 62 -110 137 -125 166 -50 101 -18 211 77 266
81 48 235 14 281 -60 32 -52 23 -128 -20 -166 -58 -52 -100 -31 -70 36 57 125
-22 221 -129 156 -48 -29 -67 -80 -52 -139 15 -60 41 -99 151 -223 58 -65 103
-127 122 -167 102 -216 -53 -414 -313 -399 -124 7 -261 84 -304 171 -15 30
-16 16 -16 -246 l0 -278 285 2 285 2 2 51 2 51 3 -47 c5 -55 -10 -50 155 -53
l107 -2 4 51 3 51 2 -51 2 -51 65 0 65 0 0 51 1 51 32 -40 32 -39 6 39 c6 39
6 38 8 -12 1 -40 5 -53 16 -53 11 0 15 12 15 50 0 48 1 50 28 49 23 -2 24 -2
5 -6 -19 -4 -23 -11 -23 -44 0 -30 4 -39 18 -39 9 0 28 -3 42 -6 21 -5 22 -4
10 6 -12 10 -12 11 5 5 11 -4 44 -10 73 -13 l52 -4 0 45 c0 35 -4 46 -17 50
-10 2 0 4 21 4 30 1 36 -1 23 -8 -12 -7 -17 -23 -17 -49 0 -36 3 -40 24 -40
23 0 25 5 28 48 3 44 5 47 33 49 27 2 28 1 5 -5 -19 -6 -25 -15 -26 -44 -3
-35 -2 -36 42 -42 24 -3 55 -1 69 4 17 7 24 7 20 0 -3 -6 3 -10 14 -10 19 0
21 6 21 52 l0 51 28 -36 c15 -20 30 -36 34 -37 4 0 9 15 11 33 3 24 4 21 5
-15 2 -62 20 -62 25 0 l3 47 2 -47 2 -47 56 2 57 2 21 50 22 49 20 -50 21 -50
67 -2 66 -2 0 50 c0 43 3 50 19 50 26 0 52 -27 45 -45 -4 -8 -17 -15 -30 -15
-18 0 -24 -6 -24 -21 0 -17 5 -20 32 -17 26 3 33 9 45 43 21 60 29 61 49 6 10
-28 22 -51 26 -51 4 0 8 23 8 50 0 46 2 50 24 50 33 0 53 -26 38 -50 -8 -14
-8 -22 3 -36 15 -21 11 -27 46 64 9 25 11 25 21 9 5 -10 7 -21 4 -24 -3 -4 -6
0 -6 8 0 11 -2 11 -10 -1 -15 -24 -12 -33 10 -27 15 4 22 -1 26 -19 4 -17 13
-24 30 -24 22 0 24 5 26 48 l1 47 4 -41 c4 -38 7 -42 34 -46 29 -4 32 -1 53
45 l22 51 21 -52 c20 -48 25 -52 55 -52 26 0 30 3 18 11 -12 9 -12 10 3 5 62
-20 63 -20 81 28 18 48 30 57 40 30 9 -24 7 -31 -4 -14 -9 13 -11 13 -20 0 -7
-12 -4 -16 15 -18 13 -2 27 -12 30 -23 12 -36 25 -19 27 34 l2 52 3 -46 c4
-46 5 -47 45 -53 55 -9 85 11 91 61 l4 38 1 -40 c1 -23 -3 -46 -10 -53 -9 -9
-6 -12 15 -12 26 0 27 2 27 50 0 41 3 50 18 49 10 0 12 -3 5 -6 -7 -2 -13 -22
-13 -43 0 -31 4 -39 23 -44 12 -3 111 -6 220 -6 l197 0 0 317 0 318 -46 -79
c-62 -106 -149 -196 -190 -196 -46 0 -68 31 -74 103 l-5 61 -53 -72 c-35 -46
-63 -74 -80 -79 -51 -12 -112 46 -115 110 -1 20 -5 37 -8 37 -11 0 -45 -45
-62 -83 -37 -83 -161 -89 -243 -12 l-37 35 -43 -40 c-24 -22 -56 -45 -70 -50
-37 -15 -111 -12 -143 5 -35 18 -79 69 -87 101 -6 23 -8 22 -51 -26 -25 -28
-48 -49 -50 -46 -3 3 17 42 45 88 32 54 52 99 55 127 l6 44 -62 -93 -62 -93
-6 219 c-10 333 -10 664 -1 664 5 0 33 -25 63 -55 76 -77 155 -212 136 -231
-3 -3 -44 -13 -91 -22 -68 -14 -86 -21 -86 -34 0 -27 38 -41 130 -47 l85 -6 3
-77 3 -77 48 6 c56 6 99 -12 130 -56 52 -73 -4 -153 -141 -200 l-53 -18 2 -49
c3 -59 31 -89 72 -79 63 14 105 60 222 234 125 188 150 211 200 191 43 -18 44
-26 10 -69 -20 -24 -31 -50 -31 -70 0 -32 48 -141 63 -141 14 0 57 52 113 136
80 122 124 143 209 100 32 -17 51 -22 56 -15 10 17 40 6 61 -22 l20 -26 -31
-110 c-30 -104 -40 -183 -23 -183 6 0 42 44 145 180 18 25 41 44 50 44 16 -2
17 32 17 412 l0 414 -837 -1 c-688 -1 -829 -3 -787 -13 60 -15 164 -56 164
-65 0 -10 -140 -795 -144 -806 -5 -14 -12 21 -31 145 -33 212 -54 214 -95 10
-30 -151 -47 -204 -70 -225 -34 -31 -48 -3 -77 148 -41 221 -63 221 -119 2
-19 -77 -41 -158 -47 -180 -10 -33 -13 45 -17 425 -3 256 -4 470 -2 477 4 13
132 62 191 74 20 4 -309 7 -731 8 l-768 1 1 -437z m1232 215 c-40 -260 -131
-503 -194 -523 -15 -5 -18 -12 -13 -33 9 -36 9 -36 38 -17 60 40 115 159 172
380 l34 130 -5 -190 c-3 -104 -5 -290 -5 -412 0 -151 -3 -223 -11 -223 -22 0
-122 106 -167 178 l-47 74 -8 -53 c-9 -69 -46 -145 -91 -188 -67 -65 -159 -48
-210 39 -16 26 -21 52 -21 105 1 97 26 166 84 226 45 46 50 49 98 49 40 0 58
-6 80 -24 l29 -25 1 112 c0 95 4 124 27 190 14 43 43 104 62 135 41 63 143
174 154 167 4 -2 1 -46 -7 -97z m1327 -18 c15 -15 20 -33 20 -69 0 -42 -5 -54
-32 -82 -70 -70 -213 -114 -368 -113 -102 1 -160 13 -160 34 0 5 15 10 33 10
50 0 153 27 215 57 30 14 81 51 111 82 107 106 141 121 181 81z m-630 -452
l-5 -453 -42 -23 c-76 -42 -196 -65 -303 -59 -89 5 -228 40 -251 64 -4 4 18
99 49 211 30 111 59 199 62 195 4 -5 15 -48 25 -98 20 -107 37 -143 69 -151
64 -16 86 17 122 182 29 133 33 149 38 143 2 -2 12 -62 21 -134 9 -71 21 -135
27 -142 15 -18 35 -16 42 4 4 9 36 168 72 352 64 329 70 361 76 361 2 0 1
-204 -2 -452z m-1500 -708 c12 -8 10 -10 -9 -8 -35 4 -37 -18 -1 -30 30 -11
38 -26 20 -37 -5 -3 -10 1 -10 9 0 9 -11 18 -25 22 -36 9 -32 48 5 53 3 0 12
-4 20 -9z m115 -21 c10 -15 -3 -59 -17 -59 -9 0 -9 3 0 12 16 16 15 33 -4 52
-12 12 -20 13 -35 6 -21 -12 -25 -40 -7 -58 9 -9 9 -12 0 -12 -6 0 -15 12 -18
27 -13 50 54 77 81 32z m117 -46 c7 -9 7 -13 0 -13 -14 0 -22 26 -20 63 l1 32
4 -35 c3 -19 9 -41 15 -47z m47 -7 c-9 -8 -10 -7 -5 7 3 10 7 33 8 50 1 28 2
28 5 -7 3 -22 -1 -43 -8 -50z m111 58 c0 -2 -9 0 -20 6 -11 6 -20 13 -20 16 0
2 9 0 20 -6 11 -6 20 -13 20 -16z m135 -5 c10 -15 -3 -59 -17 -59 -9 0 -9 3 0
12 18 18 14 46 -7 58 -34 18 -67 -30 -39 -58 9 -9 9 -12 0 -12 -6 0 -15 12
-18 27 -13 50 54 77 81 32z m545 21 c12 -8 10 -10 -9 -8 -32 4 -50 -25 -33
-53 11 -18 11 -20 0 -17 -21 7 -22 60 -2 75 21 15 24 16 44 3z m234 4 c9 -3
16 -11 16 -16 0 -7 -5 -6 -14 1 -30 25 -64 -14 -45 -52 10 -21 10 -21 -5 -3
-21 26 -20 32 4 56 22 22 22 22 44 14z m176 -4 c12 -8 10 -10 -9 -8 -35 4 -37
-18 -1 -30 30 -11 38 -26 20 -37 -5 -3 -10 1 -10 9 0 9 -11 18 -25 22 -36 9
-32 48 5 53 3 0 12 -4 20 -9z m678 -1 c-26 -15 -22 -26 12 -38 28 -9 43 -41
19 -41 -5 0 -8 4 -4 10 3 5 -8 16 -25 25 -16 8 -30 19 -30 23 0 12 22 32 35
32 5 0 2 -5 -7 -11z m244 -66 c7 -9 7 -13 0 -13 -14 0 -22 26 -20 63 l1 32 4
-35 c3 -19 9 -41 15 -47z m-2074 47 c-10 -16 -10 -24 0 -40 7 -11 8 -20 2 -20
-16 0 -23 49 -10 65 18 21 22 18 8 -5z m416 6 c-3 -9 6 -17 25 -24 29 -10 44
-42 20 -42 -5 0 -8 4 -4 10 3 5 -8 16 -25 25 -30 15 -36 26 -23 38 10 11 13 8
7 -7z m1811 -26 c0 -19 -6 -35 -13 -38 -11 -3 -11 -1 0 17 11 17 11 25 0 42
-11 18 -11 20 0 17 7 -3 13 -19 13 -38z m-2165 -30 c0 -5 -5 -10 -11 -10 -5 0
-7 5 -4 10 3 6 8 10 11 10 2 0 4 -4 4 -10z m930 0 c0 -5 -5 -10 -11 -10 -5 0
-7 5 -4 10 3 6 8 10 11 10 2 0 4 -4 4 -10z"/>
<path d="M896 715 c-24 -24 -37 -83 -24 -110 12 -26 60 -50 82 -42 23 9 32
111 12 142 -19 28 -47 32 -70 10z"/>
<path d="M806 530 c-17 -110 40 -157 103 -85 38 44 38 51 3 58 -15 3 -41 19
-57 36 -17 17 -33 31 -36 31 -4 0 -9 -18 -13 -40z"/>
<path d="M2299 741 c-27 -21 -76 -117 -66 -127 12 -12 88 46 104 80 15 33 13
66 -5 66 -5 0 -20 -9 -33 -19z"/>
<path d="M3005 725 c-24 -27 -89 -182 -101 -241 -7 -37 10 -54 32 -32 8 8 48
67 88 132 59 93 73 122 67 139 -12 33 -55 34 -86 2z"/>
<path d="M2550 602 c-25 -37 -46 -70 -48 -74 -2 -5 31 -8 73 -8 68 0 76 2 71
18 -22 77 -41 132 -45 132 -3 0 -26 -31 -51 -68z"/>
<path d="M2557 453 c-10 -9 23 -43 43 -43 19 0 40 19 40 37 0 14 -71 19 -83 6z"/>
<path d="M1990 70 c0 -13 7 -20 18 -20 26 0 34 11 21 27 -17 20 -39 16 -39 -7z"/>
<path d="M2167 84 c-16 -16 -6 -34 19 -34 19 0 25 5 22 17 -3 19 -29 29 -41
17z"/>
<path d="M1796 65 c-9 -23 -8 -25 9 -25 17 0 19 9 6 28 -7 11 -10 10 -15 -3z"/>
<path d="M2085 67 c-8 -19 -2 -31 13 -26 5 2 6 13 2 24 -7 19 -8 19 -15 2z"/>
<path d="M2466 65 c-9 -23 -8 -25 9 -25 17 0 19 9 6 28 -7 11 -10 10 -15 -3z"/>
<path d="M990 37 c0 -35 2 -37 32 -37 l31 0 -24 28 c-13 15 -27 31 -31 37 -5
5 -8 -8 -8 -28z"/>
<path d="M1550 36 c0 -32 3 -36 25 -36 14 0 25 3 25 6 0 3 -11 19 -25 36 l-25
30 0 -36z"/>
<path d="M2167 33 c-16 -15 -6 -33 18 -33 23 0 24 2 15 20 -11 21 -22 25 -33
13z"/>
<path d="M1776 15 c-4 -11 2 -15 24 -15 20 0 30 5 30 15 0 20 -46 20 -54 0z"/>
<path d="M2067 16 c-5 -12 1 -16 24 -16 20 0 29 4 27 13 -7 18 -45 20 -51 3z"/>
<path d="M2246 15 c-4 -11 2 -15 24 -15 20 0 30 5 30 15 0 20 -46 20 -54 0z"/>
<path d="M2450 15 c0 -10 10 -15 30 -15 22 0 28 4 24 15 -4 8 -17 15 -30 15
-15 0 -24 -6 -24 -15z"/>
<path d="M2657 23 c-15 -14 -6 -23 23 -23 22 0 28 4 24 15 -6 15 -35 20 -47 8z"/>
</g>
</svg>
